# xmcd
#
# Track frame offsets:
#	150
#	12692
#	29681
#	46905
#	54950
#	84203
#	92406
#	99130
#	113151
#	130402
#	148206
#
# Disc length: 2233 seconds
#
# Revision: 1
# Processed by: cddbd v1.5.2PL0 Copyright (c) Steve Scherf et al.
# Submitted via: audiograbber 1.83.01
#
DISCID=8908b70b
DTITLE=Miroslav Evacic - Blues Reke Drave
DYEAR=2006
DGENRE=Blues
TTITLE0=Volim ja
TTITLE1=Cula jesam
TTITLE2=Medjimurje Medley
TTITLE3=Izvor
TTITLE4=Tok
TTITLE5=Usce
TTITLE6=Na ranje Blues
TTITLE7=Cula jesam (Alt Version)
TTITLE8=Trnovec
TTITLE9=Cimbulaska Polka (Remixed)
TTITLE10=Tamo preko Drave
EXTD=
EXTT0=
EXTT1=
EXTT2=
EXTT3=
EXTT4=
EXTT5=
EXTT6=
EXTT7=
EXTT8=
EXTT9=
EXTT10=
PLAYORDER=
